<svg id="Flat" height="512" viewBox="0 0 512 512" width="512" xmlns="http://www.w3.org/2000/svg"><path d="m88 24h400v408h-400z" fill="#65dcff"/><g fill="#57c1ff"><path d="m224 120h128v48h-128z"/><path d="m136 200h96v64h-96z"/><path d="m344 192h88v16h-88z"/><path d="m296 192h32v16h-32z"/><path d="m280 224h152v16h-152z"/><path d="m312 256h56v16h-56z"/><path d="m352 296h16v16h-16z"/><path d="m304 296h32v16h-32z"/><path d="m256 344h104v16h-104z"/><path d="m136 304h96v80h-96z"/></g><path d="m88 24h400v64h-400z" fill="#3ea7ff"/><path d="m456 88h32v344h-32z" fill="#a0eaff"/><path d="m456 152h32v48h-32z" fill="#57c1ff"/><circle cx="120" cy="56" fill="#eb352f" r="8"/><circle cx="152" cy="56" fill="#f2e368" r="8"/><circle cx="184" cy="56" fill="#a0cc00" r="8"/><path d="m104 408v40a40 40 0 0 1 -80 0v-40z" fill="#b3b3b3"/><path d="m24 328h80v80h-80z" fill="#104f91"/><path d="m24 248h80v80h-80z" fill="#2b7cd4"/><path d="m24 168h80v80h-80z" fill="#3ea7ff"/><path d="m120.57 448-28.29 28.28a39.994 39.994 0 1 1 -56.56-56.56l28.29-28.28z" fill="#ccc"/><path d="m80.574 351.441h80.002v79.988h-80.002z" fill="#a8070f" transform="matrix(.707 -.707 .707 .707 -241.471 199.908)"/><path d="m137.144 294.871h80.002v79.988h-80.002z" fill="#c7161f" transform="matrix(.707 -.707 .707 .707 -184.901 223.34)"/><path d="m193.713 238.301h79.995v79.988h-79.995z" fill="#eb352f" transform="matrix(.707 -.707 .707 .707 -128.335 246.8)"/><path d="m104 408v80h-40a40 40 0 0 1 0-80z" fill="#e6e6e6"/><circle cx="64" cy="448" fill="#808080" r="8"/><path d="m104 408h80v80h-80z" fill="#e0b82f"/><path d="m184 408h80v80h-80z" fill="#eacf4d"/><path d="m264 408h80v80h-80z" fill="#f2e368"/></svg>